<svg width="64" height="64" viewBox="0 0 64 64" xmlns="http://www.w3.org/2000/svg">
  <defs>
    <linearGradient id="bg" x1="0" y1="0" x2="1" y2="1">
      <stop offset="0%" stop-color="#3b82f6"/>
      <stop offset="55%" stop-color="#6366f1"/>
      <stop offset="100%" stop-color="#a855f7"/>
    </linearGradient>
    <radialGradient id="shine" cx="0.3" cy="0.25" r="0.7">
      <stop offset="0%" stop-color="white" stop-opacity="0.35"/>
      <stop offset="60%" stop-color="white" stop-opacity="0"/>
    </radialGradient>
  </defs>
  <rect width="64" height="64" rx="16" fill="url(#bg)"/>
  <rect width="64" height="64" rx="16" fill="url(#shine)"/>
  <ellipse cx="20" cy="20" rx="6.5" ry="6.5" fill="#1f2937"/>
  <ellipse cx="44" cy="20" rx="6.5" ry="6.5" fill="#1f2937"/>
  <ellipse cx="20" cy="20" rx="3" ry="3" fill="#374151"/>
  <ellipse cx="44" cy="20" rx="3" ry="3" fill="#374151"/>
  <ellipse cx="32" cy="32" rx="18" ry="16.5" fill="white"/>
  <ellipse cx="25" cy="30" rx="4.2" ry="5.2" fill="#1f2937" transform="rotate(-12 25 30)"/>
  <ellipse cx="39" cy="30" rx="4.2" ry="5.2" fill="#1f2937" transform="rotate(12 39 30)"/>
  <circle cx="25.5" cy="30.5" r="1.6" fill="white"/>
  <circle cx="38.5" cy="30.5" r="1.6" fill="white"/>
  <circle cx="25.8" cy="30.7" r="0.7" fill="#1f2937"/>
  <circle cx="38.8" cy="30.7" r="0.7" fill="#1f2937"/>
  <ellipse cx="32" cy="36" rx="1.8" ry="1.4" fill="#1f2937"/>
  <path d="M 28 39 Q 32 42 36 39" stroke="#1f2937" stroke-width="1.4" fill="none" stroke-linecap="round"/>
  <circle cx="20" cy="37" r="2.2" fill="#fda4af" opacity="0.55"/>
  <circle cx="44" cy="37" r="2.2" fill="#fda4af" opacity="0.55"/>
  <g transform="translate(45,44)">
    <circle r="6" fill="white" stroke="#1f2937" stroke-width="1"/>
    <circle r="2.4" fill="url(#bg)"/>
  </g>
</svg>
